<svg xmlns="http://www.w3.org/2000/svg" xmlns:xlink="http://www.w3.org/1999/xlink" xmlns:lucid="lucid" width="942.5" height="924.37"><g transform="translate(28.197267812320675 1)" lucid:page-tab-id="0_0"><path d="M-500-500h1500v1500H-500z" fill="#fff"/><path d="M480 80c0 44.18-35.82 80-80 80s-80-35.82-80-80 35.82-80 80-80 80 35.82 80 80z" stroke="#3a414a" stroke-width="2" fill="#fff"/><use xlink:href="#a" transform="matrix(1,0,0,1,325,5) translate(60.7037037037037 76.29166666666667)"/><path d="M480 320c0 44.18-35.82 80-80 80s-80-35.82-80-80 35.82-80 80-80 80 35.82 80 80z" stroke="#3a414a" stroke-width="2" fill="#fff"/><use xlink:href="#b" transform="matrix(1,0,0,1,324.99999999999994,245) translate(14.629629629629626 76.29166666666667)"/><path d="M480 580c0 44.18-35.82 80-80 80s-80-35.82-80-80 35.82-80 80-80 80 35.82 80 80z" stroke="#3a414a" stroke-width="2" fill="#fff"/><use xlink:href="#c" transform="matrix(1,0,0,1,324.99999999999994,505) translate(3.1851851851851904 76.29166666666667)"/><path d="M760 580c0 44.18-35.82 80-80 80s-80-35.82-80-80 35.82-80 80-80 80 35.82 80 80z" stroke="#3a414a" stroke-width="2" fill="#fff"/><use xlink:href="#d" transform="matrix(1,0,0,1,605,505) translate(-8.40740740740739 77.66666666666667)"/><path d="M480 820c0 44.18-35.82 80-80 80s-80-35.82-80-80 35.82-80 80-80 80 35.82 80 80z" stroke="#3a414a" stroke-width="2" fill="#fff"/><use xlink:href="#e" transform="matrix(1,0,0,1,325.00000000000006,745) translate(34.46296296296296 76.29166666666667)"/><path d="M860 320c0 44.18-35.82 80-80 80s-80-35.82-80-80 35.82-80 80-80 80 35.82 80 80z" stroke="#3a414a" stroke-width="2" fill="#fff"/><use xlink:href="#f" transform="matrix(1,0,0,1,705,245) translate(50.98148148148148 76.29166666666667)"/><path d="M740 80c0 44.18-35.82 80-80 80s-80-35.82-80-80 35.82-80 80-80 80 35.82 80 80z" stroke="#3a414a" stroke-width="2" fill="#fff"/><use xlink:href="#g" transform="matrix(1,0,0,1,585,5) translate(57 76.29166666666667)"/><path d="M400.48 222.62h-.96V211.2h.96zm0-33.82h-.96v-27.3h.96z" stroke="#3a414a" stroke-width=".05" fill="#3a414a"/><path d="M400 161h.48v.5h-.96v-.5z" fill="#3a414a"/><path stroke="#3a414a" stroke-width=".05" fill="#3a414a"/><path d="M400 237.38l-4.63-14.26h9.26z" fill="#3a414a"/><path d="M400 238.92l-5.3-16.28h10.6zm-3.98-15.33l3.98 12.25 3.98-12.26z" stroke="#3a414a" stroke-width=".05" fill="#3a414a"/><use xlink:href="#h" transform="matrix(1,0,0,1,360.6703703703704,188.80000000000004) translate(0 14.933333333333335)"/><path d="M288.22 111.04l1.62 6.93 1.72 6.2 1.76 5.42 1.75 4.7 1.7 4.07 1.64 3.48 1.58 3 1.48 2.57 1.4 2.22 1.35 1.9 1.27 1.67 1.2 1.46 1.14 1.26 1.1 1.1 1.04.98 1 .85.94.75.93.67.9.58.86.52.84.46.82.4.8.36.8.3.77.26.75.23.77.18.75.16.76.12.76.1.75.05.77.04h.77l.78-.05.8-.08.82-.1.84-.16.87-.2.9-.23.93-.3.96-.34 1-.42 1.06-.48 1.12-.57 1.18-.66 1.26-.8 1.34-.9 1.45-1.08 1.57-1.27 1.7-1.5 1.86-1.8 2.05-2.14 2.27-2.6 2.24-2.8.73.6-2.25 2.8-2.3 2.63-2.08 2.17-1.9 1.82-1.72 1.53-1.6 1.3-1.47 1.1-1.37.93-1.3.8-1.2.7-1.16.57-1.1.5-1.04.43-1 .36-.96.3-.94.25-.9.2-.88.15-.86.1-.85.1-.83.03h-.82l-.8-.02-.8-.06-.8-.1-.8-.13-.8-.16-.8-.2-.8-.23-.82-.28-.82-.34-.84-.36-.86-.42-.87-.48-.9-.54-.94-.6-.95-.7-.98-.78-1.02-.88-1.07-1-1.1-1.13-1.18-1.3-1.22-1.47-1.3-1.7-1.35-1.94-1.43-2.25-1.5-2.6-1.6-3.02-1.65-3.53-1.72-4.1-1.76-4.74-1.77-5.47-1.73-6.23-1.63-6.97-1.44-7.6h.96zm23.93-98.3l.93.05.97.08 1 .15 1.08.2 1.13.25 1.2.32 1.28.4 1.37.5 1.5.62 1.6.74 1.64.85-.43.86-1.63-.84-1.56-.73-1.44-.6-1.33-.5-1.24-.38-1.17-.32-1.1-.25-1.02-.2-.96-.12-.93-.1-.88-.04-.85-.02-.82.03-.8.06-.76.1-.76.1-.73.16-.7.17-.7.2-.7.23-.7.26-.67.3-.68.32-.68.37-.68.4-.7.43-.68.5-.7.54-.7.6-.7.65-.73.73-.74.8-.76.9-.77 1-.78 1.13-.8 1.25-.84 1.42-.84 1.6-.87 1.82-.9 2.08-.88 2.38-.9 2.73-.9 3.15-.86 3.65-.82 4.2-.73 4.85-.6 5.54-.4 6.3-.16 7 .15 7.6.1 2h-.94l-.12-1.95-.15-7.67.16-7.04.4-6.34.6-5.6.75-4.87.83-4.25.88-3.68.9-3.2.92-2.76.9-2.4.9-2.12.9-1.85.86-1.64.85-1.46.83-1.3.8-1.15.8-1.04.78-.93.77-.84.76-.76.74-.7.73-.6.72-.58.72-.5.72-.48.7-.42.72-.38.7-.35.73-.3.73-.3.73-.24.75-.23.75-.18.78-.17.78-.12.8-.08.84-.06.86-.03z" stroke="#3a414a" stroke-width=".05" fill="#3a414a"/><path d="M352.66 145.73l.1.07-.33.42-.75-.6.32-.4z" fill="#3a414a"/><path stroke="#3a414a" stroke-width=".05" fill="#3a414a"/><path d="M337.6 25.93l-14.3-4.56 5.4-7.53z" fill="#3a414a"/><path d="M338.84 26.83l-16.3-5.2 6.16-8.6zm-14.77-5.7l12.27 3.9-7.63-10.38z" stroke="#3a414a" stroke-width=".05" fill="#3a414a"/><use xlink:href="#i" transform="matrix(1,0,0,1,272.41330455511076,81.24307757820065) translate(0 14.933333333333335)"/><path d="M285.03 347.26l1.1 5.65 1.22 4.96 1.25 4.3 1.26 3.7 1.24 3.2 1.22 2.73 1.2 2.37 1.13 2.05 1.1 1.8 1.06 1.55 1.03 1.37.98 1.2.96 1.06.92.93.9.83.85.74.85.66.82.58.8.52.8.46.8.42.78.36.77.32.78.28.77.24.78.2.78.18.8.13.8.1.82.07.83.03h.88l.88-.06.92-.1.95-.14 1-.2 1.04-.24 1.1-.3 1.17-.4 1.24-.48 1.32-.58 1.42-.7 1.54-.85 1.68-1 1.84-1.24 2.03-1.5 2.27-1.83 2.53-2.25 2.52-2.45.66.68-2.53 2.47-2.57 2.28-2.3 1.86-2.06 1.54-1.87 1.25-1.7 1.04-1.6.86-1.45.72-1.36.6-1.28.5-1.2.4-1.15.32-1.07.26-1.04.2-1 .14-.96.1-.94.05h-.9l-.88-.03-.86-.07-.85-.1-.82-.15-.83-.18-.8-.2-.83-.27-.8-.3-.83-.33-.82-.38-.83-.44-.83-.5-.85-.53-.86-.6-.87-.7-.9-.76-.92-.86-.93-.95-.98-1.1-1.02-1.23-1.04-1.4-1.1-1.6-1.1-1.82-1.17-2.1-1.2-2.4-1.24-2.8-1.27-3.22-1.27-3.74-1.27-4.33-1.22-5-1.1-5.68-.54-3.54h.96zm30.57-98.04l.96.07 1 .1 1.02.16 1.08.23 1.13.27 1.2.36 1.25.44 1.34.54 1.43.66 1.55.8 1.25.7-.47.82-1.23-.7-1.5-.76-1.4-.64-1.3-.52-1.24-.43-1.16-.34-1.1-.3-1.02-.2-1-.16-.95-.1-.9-.07-.9-.02-.86.02-.84.06-.82.1-.8.1-.8.18-.8.2-.78.24-.78.27-.8.32-.77.36-.8.4-.8.45-.8.5-.83.57-.84.64-.86.72-.88.8-.92.9-.94 1.02-.97 1.16-1 1.3-1.05 1.5-1.08 1.7-1.12 1.96-1.16 2.25-1.2 2.6-1.22 3-1.25 3.5-1.25 4.06-1.2 4.7-1.13 5.35-1 6.07-.8 6.74-.53 7.3-.23 7.6.04 2.72h-.94l-.04-2.7.22-7.68.54-7.33.8-6.78 1-6.12 1.14-5.4 1.22-4.73 1.25-4.1 1.25-3.53 1.24-3.05 1.2-2.64 1.18-2.3 1.15-1.98 1.1-1.74 1.07-1.52 1.03-1.34 1-1.2.96-1.04.93-.93.92-.83.9-.74.87-.67.86-.6.85-.52.83-.46.83-.42.82-.37.82-.33.83-.3.82-.23.82-.22.84-.17.86-.13.86-.1.88-.05.9-.02z" stroke="#3a414a" stroke-width=".05" fill="#3a414a"/><path d="M341.18 375.7l.57.56-.38.36-.66-.68.38-.36z" fill="#3a414a"/><path stroke="#3a414a" stroke-width=".05" fill="#3a414a"/><path d="M340.14 263.1l-14.06-5.2 5.74-7.28z" fill="#3a414a"/><path d="M341.35 264.05l-16.05-5.94 6.56-8.3zm-14.5-6.38l12.1 4.48-7.16-10.73z" stroke="#3a414a" stroke-width=".05" fill="#3a414a"/><use xlink:href="#j" transform="matrix(1,0,0,1,228.99024139301196,321.48278533554947) translate(0 14.933333333333335)"/><path d="M542.92 320.48H481.5v-.96h61.42zm139.7 0h-45.54v-.96h45.54z" stroke="#3a414a" stroke-width=".05" fill="#3a414a"/><path d="M481.52 320.48H481v-.95h.52z" fill="#3a414a"/><path stroke="#3a414a" stroke-width=".05" fill="#3a414a"/><path d="M697.38 320l-14.26 4.63v-9.26z" fill="#3a414a"/><path d="M698.92 320l-16.28 5.3v-10.6zm-15.33 3.98l12.25-3.98-12.26-3.98z" stroke="#3a414a" stroke-width=".05" fill="#3a414a"/><use xlink:href="#k" transform="matrix(1,0,0,1,542.9201535020402,308.80000000000007) translate(0 14.933333333333335)"/><path d="M474.85 152.3l-6.6 12.93-34.6 80.55-.86-.38 34.58-80.58 6.63-12.98 1.32-2.32h1.1zm87.88-70.77l-2.68.36-4.44.78-4.22.94-4.05 1.08-3.9 1.2-3.77 1.36-3.67 1.5-3.6 1.62-3.5 1.78-3.46 1.95-3.42 2.12-3.4 2.3-3.4 2.53-3.44 2.76-3.46 3.05-3.52 3.37-3.6 3.75-3.73 4.2-3.88 4.8-3.1 4.15h-1.2l3.54-4.74 3.9-4.8 3.76-4.25 3.63-3.78 3.55-3.4 3.5-3.06 3.45-2.8 3.44-2.55 3.43-2.33 3.46-2.13 3.5-1.97 3.54-1.8 3.6-1.65 3.72-1.5 3.8-1.37 3.94-1.2 4.1-1.1 4.26-.95 4.48-.8 2.7-.36z" stroke="#3a414a" stroke-width=".05" fill="#3a414a"/><path d="M433.67 245.76l-.2.48-.88-.38.2-.47z" fill="#3a414a"/><path stroke="#3a414a" stroke-width=".05" fill="#3a414a"/><path d="M577.4 80.1l-13.95 5.56-.6-9.25z" fill="#3a414a"/><path d="M578.92 80l-15.9 6.34-.7-10.56zm-15.04 4.97l11.97-4.77-12.5-3.17z" stroke="#3a414a" stroke-width=".05" fill="#3a414a"/><use xlink:href="#l" transform="matrix(1,0,0,1,468.9658542065768,127.12042822858659) translate(0 14.933333333333335)"/><path d="M400.48 482.62h-.96v-28.75h.96zm0-51.15h-.96V401.5h.96z" stroke="#3a414a" stroke-width=".05" fill="#3a414a"/><path d="M400 401h.48v.5h-.96v-.5z" fill="#3a414a"/><path stroke="#3a414a" stroke-width=".05" fill="#3a414a"/><path d="M400 497.38l-4.63-14.26h9.26z" fill="#3a414a"/><path d="M400 498.92l-5.3-16.28h10.6zm-3.98-15.33l3.98 12.25 3.98-12.26z" stroke="#3a414a" stroke-width=".05" fill="#3a414a"/><use xlink:href="#m" transform="matrix(1,0,0,1,359.4777777777777,431.46666666666664) translate(0 14.933333333333335)"/><path d="M627.05 429.8l5.3 2.4 4.48 2.26 3.9 2.18 3.42 2.12 3.06 2.07 2.77 2.04 2.5 2.02 2.3 2 2.13 2.03 1.97 2.04 1.82 2.06 1.7 2.1 1.58 2.12 1.5 2.2 1.4 2.23 1.3 2.32 1.24 2.4 1.15 2.5 1.08 2.64 1 2.76.92 2.9.84 3.1.56 2.47-.92.2-.55-2.43-.84-3.06-.9-2.88-1-2.72-1.06-2.6-1.13-2.46-1.22-2.37-1.3-2.28-1.37-2.22-1.47-2.15-1.56-2.1-1.67-2.06-1.8-2.03-1.94-2-2.1-2-2.26-1.98-2.48-2-2.74-2.02-3.03-2.05-3.4-2.1-3.85-2.15-4.45-2.25-5.25-2.4-4.1-1.64h2.53zM468.3 373.84l5.2 3.5 5.67 3.5 6.2 3.48 6.93 3.5 7.83 3.57 9.12 3.7 11.1 3.94 14.82 4.6 11.12 2.97h-3.7l-7.7-2.05-14.86-4.6-11.13-3.97-9.14-3.7-7.88-3.6-6.95-3.5-6.24-3.5-5.7-3.52-5.24-3.54-4.45-3.3.57-.75z" stroke="#3a414a" stroke-width=".05" fill="#3a414a"/><path d="M463.88 370.58l-.56.76-.43-.3.57-.77z" fill="#3a414a"/><path stroke="#3a414a" stroke-width=".05" fill="#3a414a"/><path d="M676.3 497.5l-6.34-13.6 9.2-1.12z" fill="#3a414a"/><path d="M676.48 499.03l-7.23-15.5 10.5-1.3zm-5.82-14.73l5.45 11.68 2.47-12.65z" stroke="#3a414a" stroke-width=".05" fill="#3a414a"/><use xlink:href="#n" transform="matrix(1,0,0,1,529.9912810386993,406.6045712169417) translate(0 14.933333333333335)"/><path d="M119.3 338.63l.58 2.7.7 2.68.84 2.7.95 2.66 1.08 2.67 1.2 2.67 1.35 2.66 1.5 2.66 1.62 2.65 1.8 2.65 1.93 2.64 2.12 2.64 2.3 2.62 2.5 2.6 2.68 2.6 2.9 2.6 3.14 2.55 3.38 2.53 3.64 2.5 3.94 2.45 4.24 2.4 4.57 2.36 4.93 2.3 5.33 2.18 5.75 2.1 6.2 1.96 6.73 1.83 7.28 1.65 7.88 1.44 8.55 1.2 9.3.9 10.12.57 11.02.16 12.03-.35 13.16-.93 14.4-1.62 15.85-2.45 17.42-3.46 19.23-4.67 20.8-5.97.27.9-20.82 6-19.27 4.66-17.46 3.46-15.87 2.46-14.46 1.63-13.18.93-12.07.34-11.06-.16-10.17-.56-9.33-.9-8.6-1.22-7.9-1.45-7.32-1.66-6.76-1.85-6.25-1.98-5.8-2.1-5.35-2.2-4.97-2.3-4.6-2.37-4.28-2.43-3.97-2.48-3.68-2.53-3.4-2.55-3.18-2.58-2.94-2.6-2.72-2.64-2.5-2.64-2.34-2.65-2.14-2.66-1.97-2.67-1.8-2.68-1.66-2.7-1.5-2.7-1.37-2.7-1.23-2.7-1.1-2.7-.96-2.7-.83-2.73-.72-2.72-.6-2.73-.44-2.5h.98zM274.2 232.4l14.12.8 15.4 1.52 16.87 2.38 18.48 3.4 9.94 2.26-.2.93-9.93-2.27-18.46-3.4-16.83-2.36-15.36-1.52-14.07-.8-12.9-.17-11.86.32-10.9.76-10.04 1.13-9.26 1.42-8.55 1.7-7.9 1.9-7.3 2.1-6.76 2.24-6.27 2.37-5.8 2.48-5.37 2.6-4.97 2.63-4.62 2.7-4.27 2.75-3.94 2.8-3.66 2.8-3.4 2.84-3.1 2.86-2.9 2.86-2.66 2.87-2.44 2.88-2.25 2.87-2.05 2.87-1.87 2.86-1.7 2.86-1.54 2.84-1.4 2.84-1.23 2.82-1.1 2.82-.95 2.8-.82 2.8-.7 2.78-.53 2.58h-.97l.58-2.8.7-2.8.83-2.84.98-2.85 1.1-2.85 1.26-2.86 1.4-2.87 1.56-2.88 1.72-2.9 1.9-2.9 2.07-2.9 2.26-2.9 2.47-2.9 2.7-2.9 2.9-2.88 3.16-2.9 3.4-2.86 3.7-2.84 3.98-2.8 4.3-2.78 4.64-2.72 5-2.66 5.42-2.6 5.83-2.5 6.3-2.38 6.8-2.26 7.34-2.1 7.95-1.92 8.6-1.7 9.3-1.44 10.07-1.12 10.94-.76 11.9-.33z" stroke="#3a414a" stroke-width=".05" fill="#3a414a"/><path d="M365.48 393.3l-1 .27-.26-.9z" fill="#3a414a"/><path stroke="#3a414a" stroke-width=".05" fill="#3a414a"/><path d="M363.28 246.64l-14.95 1.2 2.14-9z" fill="#3a414a"/><path d="M364.78 247l-17.06 1.38 2.44-10.3zm-15.83.33l12.84-1.05-11.02-6.7z" stroke="#3a414a" stroke-width=".05" fill="#3a414a"/><use xlink:href="#i" transform="matrix(1,0,0,1,105.15937283567447,313.9200571520104) translate(0 14.933333333333335)"/><path d="M400.48 722.62h-.96V707.2h.96zm0-37.82h-.96v-23.3h.96z" stroke="#3a414a" stroke-width=".05" fill="#3a414a"/><path d="M400 661h.48v.5h-.96v-.5z" fill="#3a414a"/><path stroke="#3a414a" stroke-width=".05" fill="#3a414a"/><path d="M400 737.38l-4.63-14.26h9.26z" fill="#3a414a"/><path d="M400 738.92l-5.3-16.28h10.6zm-3.98-15.33l3.98 12.25 3.98-12.26z" stroke="#3a414a" stroke-width=".05" fill="#3a414a"/><use xlink:href="#j" transform="matrix(1,0,0,1,346.20370370370364,684.8) translate(0 14.933333333333335)"/><path d="M290.02 688.2l3.63 9.18 4.08 9.17 4.42 8.9 4.65 8.45 4.72 7.8 4.7 7.1 4.6 6.3 4.4 5.57 3.1 3.6-.72.62-3.12-3.63-4.43-5.6-4.6-6.34-4.73-7.1-4.75-7.85-4.66-8.48-4.43-8.95-4.1-9.2-3.64-9.2-2.86-8.2h1zm28.5-107.72l-1.98.05-2.26.14-2.1.22-1.94.27-1.82.35-1.7.4-1.62.45-1.5.5-1.45.53-1.38.58-1.3.6-1.26.66-1.2.7-1.14.73-1.12.78-1.08.82-1.04.86-1 .9-1 .98-.96 1.03-.94 1.08-.9 1.16-.9 1.23-.87 1.3-.84 1.4-.8 1.5-.8 1.6-.8 1.74-.73 1.88-.7 2.04-.68 2.22-.63 2.43-.56 2.66-.5 2.93-.4 3.2-.3 3.58-.16 3.96v4.4l.2 4.9.47 5.45.78 6.04 1.13 6.7.55 2.5h-.97l-.5-2.33-1.14-6.72-.77-6.1-.47-5.48-.2-4.93v-4.45l.16-4 .3-3.6.4-3.27.5-2.96.58-2.7.64-2.48.68-2.25.72-2.08.76-1.93.8-1.77.8-1.65.85-1.53.85-1.43.9-1.35.9-1.26.94-1.2.95-1.1 1-1.06 1-1 1.05-.93 1.07-.88 1.1-.84 1.16-.8 1.2-.75 1.23-.72 1.3-.66 1.33-.63 1.4-.58 1.47-.55 1.56-.5 1.65-.47 1.74-.4 1.86-.36 2-.3 2.12-.22 2.3-.14 2-.05z" stroke="#3a414a" stroke-width=".05" fill="#3a414a"/><path d="M319 580v.48h-.5l-.02-.94h.53z" fill="#3a414a"/><path stroke="#3a414a" stroke-width=".05" fill="#3a414a"/><path d="M338.35 765.06L325 758.2l6.6-6.53z" fill="#3a414a"/><path d="M339.43 766.16l-15.22-7.85 7.53-7.43zm-13.62-8.1l11.46 5.9-5.8-11.5z" stroke="#3a414a" stroke-width=".05" fill="#3a414a"/><use xlink:href="#n" transform="matrix(1,0,0,1,227.0094007229543,657.9462077789414) translate(0 14.933333333333335)"/><path d="M130.56 666.2l.24 5.42.46 5.37.68 5.3.9 5.22 1.1 5.15 1.3 5.06 1.52 4.96 1.7 4.84 1.9 4.74 2.06 4.63 2.25 4.52 2.43 4.4 2.6 4.27 2.76 4.14 2.94 4.02 3.1 3.9 3.28 3.78 3.45 3.66 3.62 3.53 3.8 3.4 3.98 3.28 4.17 3.17 4.37 3.02 4.58 2.88 4.8 2.76 5.03 2.62 5.28 2.47 5.54 2.32 5.84 2.15 6.13 1.98 6.48 1.8 6.84 1.6 7.23 1.35 7.67 1.12 8.16.84 8.68.5 9.26.2 9.92-.24 10.64-.7 11.45-1.23 1.48-.22.14.95-1.5.23-11.48 1.23-10.68.7-9.96.24-9.3-.18-8.72-.53-8.2-.84-7.7-1.13-7.28-1.38-6.88-1.6-6.52-1.8-6.18-2-5.86-2.17-5.6-2.33-5.3-2.5-5.07-2.63-4.84-2.77-4.62-2.92-4.4-3.04-4.2-3.18-4-3.3-3.84-3.44-3.65-3.56-3.47-3.68-3.3-3.8-3.13-3.94-2.97-4.06-2.78-4.18-2.62-4.3-2.45-4.43-2.27-4.55-2.1-4.67-1.9-4.78-1.7-4.9-1.52-4.98-1.32-5.1-1.1-5.2-.92-5.27-.68-5.34-.47-5.42-.24-5.46v-1.07h.96zm172.4-143.8l11.26.7 12.03 1.24 12.4 1.8-.15.94-12.37-1.8-12-1.24-11.22-.7-10.53-.2-9.9.24-9.36.6-8.83.94-8.36 1.25-7.92 1.53-7.54 1.78-7.17 2.02-6.83 2.23-6.5 2.44-6.23 2.63-5.93 2.8-5.68 3-5.44 3.14-5.2 3.3-4.95 3.47-4.74 3.63-4.53 3.76-4.32 3.9-4.1 4.05-3.93 4.2-3.72 4.3-3.5 4.46-3.33 4.6-3.1 4.7-2.92 4.82-2.7 4.93-2.48 5.04-2.28 5.12-2.05 5.22-1.84 5.3-1.6 5.36-1.4 5.4-1.14 5.47-.66 3.98h-.97l.7-4.16 1.15-5.5 1.4-5.46 1.6-5.4 1.85-5.33 2.07-5.25 2.3-5.16 2.5-5.1 2.7-4.95 2.94-4.86 3.14-4.75 3.34-4.6 3.54-4.5 3.74-4.35 3.95-4.22 4.16-4.07 4.35-3.93 4.57-3.8 4.78-3.63 5-3.5 5.22-3.32 5.46-3.16 5.72-3 5.97-2.83 6.26-2.64 6.55-2.46 6.87-2.25 7.2-2.03 7.58-1.8 7.97-1.53 8.4-1.26 8.88-.95 9.4-.6 9.94-.23z" stroke="#3a414a" stroke-width=".05" fill="#3a414a"/><path d="M339.44 526.26l-.74.85-.2-.02.12-.94z" fill="#3a414a"/><path stroke="#3a414a" stroke-width=".05" fill="#3a414a"/><path d="M324.83 786.35l-13.36 6.83-1.46-9.15z" fill="#3a414a"/><path d="M326.35 786.1l-15.24 7.8-1.66-10.44zm-14.5 6.36l11.46-5.86-12.72-2z" stroke="#3a414a" stroke-width=".05" fill="#3a414a"/><use xlink:href="#l" transform="matrix(1,0,0,1,116.94672679810748,642.7510495676397) translate(0 14.933333333333335)"/><path d="M478.37 732.34l-1.48 3.5-1.65 3.43-1.8 3.4-1.94 3.36-2.1 3.3-1 1.4-.77-.53.98-1.4 2.1-3.27 1.93-3.32 1.77-3.35 1.62-3.4 1.46-3.46 1.06-2.84h1.02zm-17.68-92.87l2.62 2.93 2.46 3 2.3 3.06 2.16 3.12 2 3.17 1.84 3.23 1.7 3.27 1.55 3.33 1.4 3.37 1.27 3.42 1.1 3.46.97 3.5.8 3.52.68 3.56.52 3.6.36 3.6.22 3.63.06 3.63-.07 3.65-.22 3.26h-.94l.22-3.3.08-3.6-.06-3.6-.2-3.58-.38-3.57-.5-3.54-.67-3.52-.8-3.5-.95-3.44-1.1-3.42-1.25-3.38-1.4-3.34-1.52-3.3-1.68-3.23-1.83-3.2-1.98-3.13-2.12-3.08-2.3-3.03-2.42-2.98-2.6-2.9-2.43-2.5.68-.66z" stroke="#3a414a" stroke-width=".05" fill="#3a414a"/><path d="M458.26 636.97l-.68.66-.35-.36.67-.67z" fill="#3a414a"/><path stroke="#3a414a" stroke-width=".05" fill="#3a414a"/><path d="M471.27 753.8l-12.67 8.02 5.54-13.94z" fill="#3a414a"/><path d="M472.08 753.85L457.6 763l6.34-15.9zm-12.5 6.78l10.9-6.88-6.14-5.1z" stroke="#3a414a" stroke-width=".05" fill="#3a414a"/><use xlink:href="#o" transform="matrix(1,0,0,1,430.2870733980194,706.7644244165306) translate(0 14.933333333333335)"/><path d="M521.5 596.46l-.92 5.24-1.07 4.72-1.17 4.2-1.25 3.68-1.3 3.23-1.28 2.8-1.3 2.47-1.26 2.14-1.24 1.88-1.22 1.65-1.2 1.45-1.17 1.28-1.15 1.13-1.13 1-1.1.9-1.1.8-1.1.7-1.1.6-1.07.55-1.1.48-1.08.42-1.1.35-1.12.3-1.13.24-1.16.18-1.2.12-1.22.06h-1.27l-1.32-.06-1.38-.15-1.46-.23-1.53-.33-1.63-.43-1.75-.56-.94-.36.34-.88.9.34 1.7.55 1.6.42 1.48.3 1.4.23 1.34.14 1.27.07h1.22l1.17-.08 1.13-.12 1.12-.17 1.08-.23 1.07-.28 1.05-.34 1.05-.4 1.04-.46 1.04-.52 1.04-.6 1.05-.67 1.06-.76 1.08-.86 1.1-.96 1.12-1.1 1.14-1.24 1.17-1.4 1.2-1.62 1.2-1.84 1.25-2.1 1.27-2.42 1.27-2.77 1.26-3.18 1.24-3.64 1.17-4.14 1.05-4.7.9-5.18.66-5.42h.96zm-30.17-75.8l1.2.1 1.15.16 1.13.22 1.12.27 1.1.35 1.08.38 1.08.46 1.07.5 1.07.6 1.08.65 1.1.75 1.1.85 1.1.95 1.13 1.07 1.16 1.22 1.16 1.36 1.2 1.56 1.23 1.78 1.24 2.02 1.27 2.32 1.3 2.66 1.27 3.04 1.25 3.5 1.2 3.97 1.1 4.5.98 5.04.77 5.52.17 2.04h-.95l-.18-1.93-.76-5.48-.96-5-1.1-4.44-1.18-3.93-1.24-3.44-1.26-3-1.26-2.62-1.24-2.28-1.22-1.98-1.2-1.74-1.17-1.52-1.15-1.34-1.12-1.18-1.1-1.03-1.07-.92-1.07-.8-1.05-.73-1.03-.64-1.03-.55-1.03-.5-1.04-.43-1.04-.37-1.05-.32-1.06-.26-1.08-.2-1.1-.16-1.15-.1-1.18-.03-1.24.02-1.28.08-1.34.17-1.42.25-1.5.34-1.62.46-1.74.6-1.87.75-2.06.95-2.26 1.18-2.5 1.5-2.8 1.85-2.77 2.07-.55-.76 2.8-2.08 2.83-1.9 2.54-1.5 2.3-1.22 2.1-.97 1.9-.77 1.8-.6 1.65-.48 1.56-.35 1.47-.26 1.4-.16 1.32-.1 1.28-.02z" stroke="#3a414a" stroke-width=".05" fill="#3a414a"/><path d="M465.72 531.8l-.4.3-.6-.76.44-.3z" fill="#3a414a"/><path stroke="#3a414a" stroke-width=".05" fill="#3a414a"/><path d="M481.08 632.25l-4.66 8-10-11.18z" fill="#3a414a"/><path d="M481.82 631.93l-5.32 9.14-11.4-12.77zm-5.5 7.53l4.02-6.88-12.6-2.73z" stroke="#3a414a" stroke-width=".05" fill="#3a414a"/><use xlink:href="#m" transform="matrix(1,0,0,1,481.68032505104236,568.4969800977339) translate(0 14.933333333333335)"/><path d="M534.95 462l-2.76.27-8.94 1.2-7.73 1.38-6.82 1.5-6.07 1.63-5.5 1.72-5 1.8-4.6 1.86-4.25 1.93-3.94 2-3.7 2.07-3.45 2.14-3.28 2.22-3.1 2.3-2.93 2.37-2.8 2.45-2.7 2.56-2.56 2.7-2.47 2.78-2.38 2.92-2.3 3.08-2.2 3.25-1.88 3-.8-.5 1.88-3.02 2.23-3.27 2.3-3.1 2.42-2.97 2.5-2.82 2.6-2.7 2.7-2.6 2.82-2.48 2.98-2.4 3.12-2.3 3.3-2.25 3.5-2.15 3.72-2.1 3.97-2 4.28-1.96 4.63-1.9 5.05-1.8 5.53-1.73 6.13-1.63 6.84-1.52 7.78-1.4 8.97-1.2 2.85-.26zm244.14-44.6l-.3 1.53-.62 2.84-.7 2.63-.78 2.44-.82 2.28-.88 2.14-.93 2.02-.97 1.9-1.03 1.83-1.08 1.74-1.14 1.66-1.2 1.6-1.23 1.53-1.3 1.5-1.4 1.42-1.46 1.4-1.54 1.36-1.65 1.34-1.75 1.3-1.88 1.27-2.02 1.26-2.17 1.22-2.37 1.2-2.6 1.18-2.84 1.16-3.16 1.13-3.52 1.1-4 1.06-4.56 1.02-5.32.95-6.3.85-7.7.7-9.8.5-13.48.1-57.5-3.34v-.95l57.52 3.35 13.42-.1 9.77-.5 7.66-.7 6.26-.85 5.27-.94 4.53-1 3.95-1.07 3.5-1.08 3.12-1.12 2.8-1.14 2.56-1.18 2.33-1.18 2.15-1.2 2-1.23 1.83-1.24 1.72-1.27 1.6-1.3 1.53-1.35 1.43-1.37 1.36-1.4 1.28-1.46 1.22-1.5 1.17-1.57 1.1-1.63 1.05-1.7 1-1.78.97-1.87.9-2 .87-2.1.8-2.23.76-2.4.7-2.6.62-2.8.28-1.52z" stroke="#3a414a" stroke-width=".05" fill="#3a414a"/><path d="M443.63 511.13l-.28.44-.2-.14-.6-.35.27-.45z" fill="#3a414a"/><path stroke="#3a414a" stroke-width=".05" fill="#3a414a"/><path d="M783.28 417.22l-9.23-.78 5.8-13.83z" fill="#3a414a"/><path d="M783.9 417.75l-10.54-.9L780 401.1zm-9.16-1.73l7.93.67-2.93-12.56z" stroke="#3a414a" stroke-width=".05" fill="#3a414a"/><use xlink:href="#k" transform="matrix(1,0,0,1,534.9526107351262,449.15450875460846) translate(0 14.933333333333335)"/><path d="M350.92 493.22l.8 2.66.96 2.72 1.13 2.8 1.32 2.9 1.54 3 1.55 2.77-.8.47-1.58-2.78-1.56-3.06-1.33-2.94-1.13-2.83-.97-2.76-.82-2.7-.23-.92h.98zm17.43-81.13l-7.92 19.37h-.95v2.32l-.53 1.27-3.93 10.25-2.14 6.45-1.44 5.04-1 4.28-.73 3.77-.5 3.43-.18 1.88h-.96l.2-2 .5-3.47.74-3.82 1.02-4.3 1.45-5.1 2.16-6.5 3.94-10.25 9.4-23z" stroke="#3a414a" stroke-width=".05" fill="#3a414a"/><path d="M358.45 510.5l-.8.5-.27-.47.83-.47z" fill="#3a414a"/><path stroke="#3a414a" stroke-width=".05" fill="#3a414a"/><path d="M372.4 413.2l-8.6-3.5 9.7-11.45z" fill="#3a414a"/><path d="M372.8 413.9l-9.78-4 11.06-13.08zm-8.2-4.4l7.36 3.02.96-12.85z" stroke="#3a414a" stroke-width=".05" fill="#3a414a"/><use xlink:href="#i" transform="matrix(1,0,0,1,335.9647752650767,470.15452464252064) translate(0 14.933333333333335)"/><path d="M596.95 773.65l-5.27 5.05-5.3 4.66-5.33 4.3-5.36 4-5.43 3.66-5.5 3.4-5.55 3.12-5.66 2.88-5.78 2.63-5.9 2.4-6.06 2.18-6.23 1.94-6.43 1.72-6.65 1.47-6.9 1.23-7.2.98-5 .47-.1-.95 5-.47 7.14-.97 6.87-1.23 6.6-1.47 6.4-1.7 6.2-1.93 6-2.16 5.88-2.4 5.75-2.6 5.62-2.87 5.53-3.1 5.45-3.38 5.4-3.65 5.32-3.95 5.3-4.28 5.26-4.64 5.25-5.02 3.1-3.22h1.3zm62.6-114.73l-4.8 15.36-5.13 14.18-5.2 12.73-5.26 11.45-5.28 10.35-5.3 9.37-5.28 8.5-4.4 6.5h-1.16l4.76-7 5.27-8.5 5.27-9.32 5.26-10.3 5.25-11.44 5.2-12.68 5.1-14.15 4.8-15.33z" stroke="#3a414a" stroke-width=".05" fill="#3a414a"/><path d="M659.72 658.43l-.16.5-.9-.28.14-.48z" fill="#3a414a"/><path stroke="#3a414a" stroke-width=".05" fill="#3a414a"/><path d="M497.07 823.92l-14.45-4 14.04-5.26z" fill="#3a414a"/><path d="M497.58 824.56l-16.5-4.56 16.03-6zm-13.43-4.7l12.42 3.43-.35-7.96z" stroke="#3a414a" stroke-width=".05" fill="#3a414a"/><use xlink:href="#j" transform="matrix(1,0,0,1,556.0344863020583,747.3630926919567) translate(0 14.933333333333335)"/><path d="M727.18 678.24L741.36 697l12.16 12.6 10.5 8.56 9.2 5.8 8.08 3.85 7.2 2.43 6.48 1.35 5.87.5 5.35-.2 4.9-.75 4.52-1.27 4.15-1.72 3.82-2.15 3.47-2.57 3.15-2.94 2.8-3.34 2.43-3.7 2.02-4.08.73-2.06h1l-.86 2.43-2.07 4.18-2.48 3.8-2.9 3.4-3.22 3.04-3.57 2.62-3.9 2.2-4.27 1.76-4.62 1.3-5 .78-5.48.2-5.98-.52-6.58-1.37-7.32-2.46-8.2-3.9-9.26-5.87-10.6-8.64-12.24-12.7-14.25-18.83-6.07-10.2.8-.5zm51.98-57.1l17.88 9.22 13.13 8.9 9.74 8.48 7.25 8 5.35 7.55 3.85 7.12 2.65 6.7 1.67 6.35.2 1.45h-.96l-.16-1.26-1.64-6.23-2.6-6.6-3.8-7.03-5.3-7.46-7.16-7.92-9.65-8.4-13.05-8.84-17.78-9.17-24.23-9 .33-.9z" stroke="#3a414a" stroke-width=".05" fill="#3a414a"/><path d="M754.9 612.1l-.35.9-.5-.2.37-.87z" fill="#3a414a"/><path stroke="#3a414a" stroke-width=".05" fill="#3a414a"/><path d="M724.47 665.52l-7.98 4.74-3.3-14.64z" fill="#3a414a"/><path d="M725.27 665.6l-9.1 5.4-3.76-16.7zm-8.46 3.9l6.86-4.05-9.68-8.5z" stroke="#3a414a" stroke-width=".05" fill="#3a414a"/><use xlink:href="#n" transform="matrix(1,0,0,1,784.5938438654606,684.9159246041604) translate(0 14.933333333333335)"/><path d="M522.85 735.88l-2.05 5.9-2 5.04-1.96 4.42-1.94 3.92-1.93 3.52-1.94 3.2-1.93 2.9-1.94 2.68-1.96 2.47-2 2.3-2 2.14-2.05 2-2.1 1.9-2.13 1.76-2.2 1.68-2.28 1.6-.2.1-.5-.8.18-.1 2.23-1.56 2.18-1.65 2.1-1.76 2.07-1.86 2.02-1.97 2-2.1 1.94-2.28 1.94-2.44 1.92-2.64 1.9-2.88 1.92-3.16 1.92-3.48 1.92-3.9 1.95-4.37 1.98-5 2.05-5.87 1.93-6.42h1zm6.65-29.12h-.96l1.45-8.48h.95zm5.27-30.88h-.96l3.44-20.1h.97zm63.74-95.4l-2.7.06-2.94.2-2.7.27-2.52.38-2.34.45-2.2.5-2.06.6-1.95.62-1.88.7-1.78.74-1.7.8-1.65.86-1.6.92-1.56.98-1.5 1.05-1.48 1.13-1.45 1.2-1.42 1.3-1.42 1.38-1.4 1.5-1.4 1.62-1.4 1.77-1.4 1.92-1.42 2.13-1.43 2.36-1.44 2.66-1.5 3-1.5 3.43-1.6 3.98-1.64 4.76-1.76 5.84-.97 3.8h-1l1.04-4.06 1.77-5.88 1.68-4.8 1.6-4.02 1.53-3.47 1.52-3.03 1.47-2.68 1.44-2.4 1.44-2.16 1.42-1.97 1.43-1.78 1.42-1.65 1.43-1.53 1.45-1.4 1.46-1.33 1.47-1.2 1.5-1.16 1.55-1.07 1.58-1 1.63-.94 1.68-.88 1.75-.83 1.82-.76 1.9-.7 2-.65 2.1-.58 2.24-.52 2.38-.46 2.55-.37 2.75-.3 2.97-.18 2.74-.07z" stroke="#3a414a" stroke-width=".05" fill="#3a414a"/><path d="M599 580v.48h-.5l-.02-.94h.53z" fill="#3a414a"/><path stroke="#3a414a" stroke-width=".05" fill="#3a414a"/><path d="M491.65 787.36l-14.84 2.22 10.7-10.5z" fill="#3a414a"/><path d="M492.37 787.74l-16.93 2.53 12.2-12zm-14.18 1.16l12.73-1.9-3.55-7.14z" stroke="#3a414a" stroke-width=".05" fill="#3a414a"/><use xlink:href="#l" transform="matrix(1,0,0,1,526.3167610306735,633.3675948432251) translate(0 14.933333333333335)"/><path d="M547.5 749l-3.6 7.15-3.1 5.57-2.8 4.62-2.67 3.95-2.55 3.47-2.48 3.1-2.43 2.8-2.42 2.55-2.42 2.34-2.43 2.17-2.46 2.02-2.5 1.88-2.58 1.77-2.64 1.66-2.73 1.56-2.85 1.46-2.97 1.38-3.1 1.3-3.23 1.17-.33-.9 3.2-1.16 3.08-1.28 2.93-1.37 2.8-1.45 2.7-1.54 2.6-1.64 2.54-1.74 2.48-1.86 2.43-2 2.4-2.13 2.4-2.32 2.38-2.52 2.42-2.77 2.45-3.07 2.52-3.45 2.63-3.93 2.8-4.58 3.08-5.54 3.56-7.1 20.77-50.32h1zm68.23-118.96l-3.6 2.95-3.84 3.4-3.75 3.64-3.65 3.86-3.6 4.13-3.58 4.46-3.57 4.87-3.63 5.4-3.74 6.1-3.88 7h-1.07l.16-.3 3.96-7.17 3.76-6.14 3.65-5.44 3.6-4.9 3.6-4.5 3.62-4.16 3.68-3.9 3.76-3.64 3.88-3.46 3.6-2.95z" stroke="#3a414a" stroke-width=".05" fill="#3a414a"/><path d="M616.1 629.73l-.38.32-.6-.73.4-.34z" fill="#3a414a"/><path stroke="#3a414a" stroke-width=".05" fill="#3a414a"/><path d="M496.03 805.1l-14.96-1.08 12.73-7.92z" fill="#3a414a"/><path d="M496.64 805.62l-17.07-1.23 14.54-9.04zm-14.08-1.97l12.85.93-1.9-7.73z" stroke="#3a414a" stroke-width=".05" fill="#3a414a"/><use xlink:href="#o" transform="matrix(1,0,0,1,520.8940335508476,675.883269257865) translate(0 14.933333333333335)"/><path d="M580.8 863.38l-5.57 4.04-5.32 3.53-5.08 3.1-4.87 2.67-4.67 2.32-4.5 2-4.3 1.7-4.16 1.45-4 1.2-3.9 1-3.76.8-3.66.62-3.57.45-3.48.3-3.42.14h-3.35l-3.3-.13-3.26-.27-3.22-.4-3.2-.55-3.2-.68-3.17-.8-3.17-.97-3.2-1.1-3.2-1.28-3.22-1.44-3.26-1.62-.5-.27.46-.84.48.26 3.23 1.6 3.2 1.42 3.15 1.26 3.15 1.1 3.14.94 3.13.8 3.14.68 3.17.53 3.18.4 3.22.27 3.26.14h3.3l3.4-.14 3.44-.3 3.52-.44 3.63-.6 3.7-.8 3.85-1 3.98-1.2 4.12-1.42 4.27-1.7 4.45-1.98 4.64-2.3 4.85-2.67 5.06-3.05 5.3-3.5 4.94-3.6h1.58zm70.62-89.63l-6 11.47-6.37 11.03-6.63 10.46-6.78 9.77-6.83 9-6.76 8.18-6.3 7h-1.3l.25-.25 6.62-7.37 6.75-8.16 6.8-8.96 6.76-9.72 6.6-10.42 6.36-11 5.97-11.43 1.67-3.57h1.05zm29.04-112.24l-.15 7.28-.52 8.32-.93 8.9-1.4 9.45-1.92 10.03-2.48 10.57-3.1 11.05-3.7 11.43-3.3 8.83h-1l3.4-9.14 3.7-11.4 3.08-11 2.47-10.54 1.9-10 1.4-9.4.94-8.86.52-8.28.15-7.25z" stroke="#3a414a" stroke-width=".05" fill="#3a414a"/><path d="M680 661h.48l-.02.53-.95-.02.02-.5z" fill="#3a414a"/><path stroke="#3a414a" stroke-width=".05" fill="#3a414a"/><path d="M479.63 874.62l-5.04 7.78-9.46-11.64z" fill="#3a414a"/><path d="M480.4 874.33l-5.76 8.88-10.8-13.28zm-5.85 7.27l4.33-6.7-12.45-3.3z" stroke="#3a414a" stroke-width=".05" fill="#3a414a"/><use xlink:href="#m" transform="matrix(1,0,0,1,553.2469478943984,840.6401443833577) translate(0 14.933333333333335)"/><path d="M857.9 519.9l-6.02 7.6-5.97 6.9-5.83 6.23-5.7 5.58-5.5 4.96-5.3 4.38-5.07 3.87-4.88 3.4-4.7 2.98-4.47 2.6-4.3 2.24-4.16 1.95-4 1.68-3.84 1.43-3.72 1.2-3.6 1.02-3.5.82-3.42.65-3.32.5-3.26.34-3.2.2-2.63.06v-.95l2.6-.04 3.16-.2 3.22-.34 3.28-.48 3.37-.65 3.47-.82 3.56-1 3.68-1.2 3.8-1.4 3.97-1.67 4.1-1.93 4.3-2.23 4.44-2.58 4.65-2.95 4.84-3.36 5.05-3.84 5.26-4.36 5.47-4.93 5.66-5.53 5.8-6.2 5.94-6.88 6-7.57 1.7-2.36h1.18zm18.94-182.55l1.84.96 1.76 1.03 1.68 1.06 1.6 1.1 1.56 1.2 1.48 1.2 1.44 1.3 1.38 1.36 1.33 1.42 1.3 1.5 1.24 1.56 1.2 1.66 1.17 1.75 1.14 1.86 1.08 1.97 1.04 2.1 1 2.23.94 2.4.88 2.54.83 2.75.77 2.95.68 3.2.6 3.47.46 3.76.36 4.1.18 4.46v4.88l-.23 5.34-.48 5.83-.8 6.35-1.18 6.94-1.6 7.5-2.08 8.1-2.6 8.66-3.2 9.12-3.75 9.5-4.3 9.7-4.86 9.75-5.28 9.6-.62 1.04h-1.1l.9-1.5 5.26-9.58 4.83-9.73 4.3-9.67 3.75-9.45 3.17-9.1 2.6-8.6 2.07-8.06 1.6-7.5 1.16-6.88.8-6.33.5-5.8.2-5.3v-4.84l-.17-4.42-.33-4.06-.47-3.72-.58-3.43-.67-3.16-.75-2.92-.82-2.7-.88-2.53-.93-2.35-.97-2.2-1.02-2.06-1.07-1.92-1.1-1.82-1.13-1.72-1.18-1.63-1.23-1.53-1.27-1.46-1.3-1.38-1.36-1.32-1.4-1.27-1.45-1.2-1.53-1.15-1.57-1.1-1.65-1.04-1.72-1-1.8-.94-1-.47.4-.86z" stroke="#3a414a" stroke-width=".05" fill="#3a414a"/><path d="M761.53 580.46H761V579.55h.5z" fill="#3a414a"/><path stroke="#3a414a" stroke-width=".05" fill="#3a414a"/><path d="M873.86 341.6l-12.32-8.54 15-.32z" fill="#3a414a"/><path d="M874.13 342.38l-14.07-9.76 17.12-.37zM863 333.5l10.6 7.35 2.3-7.63z" stroke="#3a414a" stroke-width=".05" fill="#3a414a"/><use xlink:href="#k" transform="matrix(1,0,0,1,820.1357794863408,494.56895712360193) translate(0 14.933333333333335)"/><path d="M594.2 507.58l8.85 6.28 8.2 6.35 7.37 6.22-.6.73-7.37-6.2-8.16-6.32-8.84-6.26-5.52-3.57v-1.14zm-145.5-98.45l3.77 5.3 3.86 4.96 4 4.7 4.16 4.53 4.37 4.37 4.67 4.28 5.04 4.25 5.55 4.3 6.28 4.45 7.42 4.8 9.44 5.56 47.48 24.12 8.56 4.56v1.07l-9-4.8-47.5-24.13-9.48-5.58-7.44-4.83-6.3-4.48-5.6-4.33-5.07-4.27-4.7-4.3-4.4-4.4-4.2-4.56-4-4.75-3.9-5.02-3.78-5.32-2.34-3.6.8-.5z" stroke="#3a414a" stroke-width=".05" fill="#3a414a"/><path d="M619 526.75l-.6.72-.4-.33.6-.73z" fill="#3a414a"/><path stroke="#3a414a" stroke-width=".05" fill="#3a414a"/><path d="M449.74 403.06l-8.02 4.64-3.14-14.66z" fill="#3a414a"/><path d="M450.54 403.14l-9.15 5.3-3.6-16.74zm-8.5 3.82l6.9-4-9.6-8.6z" stroke="#3a414a" stroke-width=".05" fill="#3a414a"/><use xlink:href="#i" transform="matrix(1,0,0,1,563.3046980546645,485.4715692136049) translate(0 14.933333333333335)"/><path d="M8.04 631.84l-.8 4.46-.6 4.4-.4 4.37L6 649.4l-.04 4.33.14 4.33.32 4.33.5 4.35.7 4.4.9 4.44 1.12 4.5 1.33 4.56 1.57 4.65 1.83 4.77 2.1 4.87 2.43 5 2.76 5.12 3.13 5.3 3.54 5.44 4 5.64 4.54 5.82 5.1 6.03 5.75 6.23 6.45 6.44 7.24 6.64 8.08 6.82 9 6.97 9.95 7.05 10.92 7.07 11.86 7 12.72 6.8 13.42 6.5 13.9 6 14.14 5.4 14.05 4.72 13.66 3.96 13.04 3.2 12.22 2.45 11.3 1.8 10.3 1.18 9.35.68 8.43.27 7.57-.08 6.78-.37 6.1-.58 5.45-.75 4.92-.88 4.43-1 4-1.07 3.64-1.14 3.3-1.2 3.03-1.22 2.76-1.26 2.54-1.3 2.33-1.3 2.16-1.35 1.6-1.08.52.78-1.6 1.1-2.2 1.35-2.36 1.33-2.58 1.3-2.8 1.3-3.05 1.24-3.34 1.2-3.67 1.16-4.05 1.1-4.46 1-4.96.88-5.5.76-6.13.58-6.82.36-7.6.08-8.47-.26-9.38-.7-10.36-1.18-11.33-1.8-12.26-2.46-13.08-3.2-13.7-3.97-14.07-4.73-14.17-5.43-13.95-6.03-13.46-6.5-12.75-6.82-11.9-7.02-10.95-7.1-10-7.08-9.02-7-8.1-6.83-7.27-6.67-6.5-6.47-5.76-6.26-5.13-6.06L31.6 726l-4.05-5.66-3.57-5.5-3.15-5.3-2.78-5.18-2.43-5.03-2.13-4.9-1.86-4.8-1.58-4.7-1.34-4.6-1.12-4.54-.9-4.5-.7-4.42-.53-4.4-.32-4.37-.14-4.36.05-4.36.23-4.38.4-4.4.62-4.45.8-4.5.47-2.07h.97zM356.17 401.3l-35.05 11.25-57.25 20.6-44.63 18.2-35.4 16.22-28.5 14.5-23.2 13.1-19.15 11.87-15.94 10.83-13.38 9.94-11.32 9.2-9.65 8.5-8.25 7.93-7.12 7.43-6.16 7-5.34 6.6-4.65 6.26-4.05 5.97-3.54 5.7-3.1 5.47-2.68 5.28-1.84 4.02h-1.04l2.03-4.43 2.7-5.32 3.1-5.5 3.56-5.75 4.07-6 4.68-6.3 5.37-6.64 6.18-7.02 7.14-7.44 8.3-7.96 9.68-8.54 11.35-9.2 13.4-9.96 15.97-10.86 19.18-11.9 23.25-13.1 28.52-14.53 35.44-16.2 44.67-18.24 57.28-20.6 35.08-11.25z" stroke="#3a414a" stroke-width=".05" fill="#3a414a"/><path d="M319 820v.57l-.16.1-.53-.77.72-.5z" fill="#3a414a"/><path stroke="#3a414a" stroke-width=".05" fill="#3a414a"/><path d="M370.1 396.35l-12.18 8.77-2.83-8.83z" fill="#3a414a"/><path d="M371.55 395.88l-13.88 10-3.23-10.06zm-13.38 8.47l10.45-7.53-12.88-.05z" stroke="#3a414a" stroke-width=".05" fill="#3a414a"/><use xlink:href="#h" transform="matrix(1,0,0,1,-28.197267812320675,607.1754721722408) translate(0 14.933333333333335)"/><path d="M399.85 901.68l-4.57 3.12-4.82 3-4.67 2.65-4.55 2.32-4.42 2.04-4.3 1.78-4.24 1.53-4.16 1.32-4.08 1.1-4.02.9-4 .73-3.93.55-3.92.38-3.9.2-3.9.06-3.9-.1-3.9-.3-3.94-.44-3.95-.62-4-.8-4.02-.97-4.08-1.17-4.13-1.38-4.2-1.6-4.25-1.84-4.34-2.07-4.42-2.36-4.5-2.65-4.1-2.65v-1.14l.04.03 4.56 2.95 4.46 2.64 4.4 2.34 4.3 2.07 4.22 1.82 4.15 1.6 4.1 1.36 4.02 1.16 4 .96 3.94.8 3.9.6 3.9.44 3.87.28 3.86.1 3.85-.03 3.86-.22 3.9-.37 3.9-.54 3.95-.72 3.98-.9 4.05-1.1 4.1-1.3 4.2-1.5 4.27-1.77 4.4-2 4.5-2.32 4.62-2.62 4.8-2.98 4.54-3.1zM308.8 557.05l-3.78 1.37-8.2 3.36-7.66 3.53-7.2 3.7-6.74 3.8-6.37 3.97-6 4.1-5.68 4.23-5.37 4.37-5.1 4.5-4.83 4.66-4.58 4.8-4.36 4.95-4.13 5.12-3.9 5.3-3.72 5.47-3.5 5.68-3.3 5.87-3.08 6.1-2.88 6.33-2.67 6.57-2.44 6.83-2.2 7.1-1.97 7.4-1.7 7.67-1.42 8-1.1 8.28-.8 8.6-.45 8.9-.07 9.2.3 9.46.75 9.7 1.16 9.9 1.6 10.04 2.07 10.13 2.5 10.13 2.95 10.05 3.35 9.9 3.73 9.67 4.06 9.34 4.35 8.96 4.6 8.5 4.76 8.02 4.9 7.5 4.96 6.98 5.02 6.44 5.02 5.93 5 5.4.3.3h-1.14v.2l-4.87-5.28-5.05-5.95-5.04-6.47-5-7-4.9-7.54-4.8-8.07-4.6-8.54-4.36-9-4.08-9.37-3.74-9.7-3.37-9.93-2.94-10.1-2.52-10.16-2.07-10.17-1.62-10.08-1.17-9.95-.74-9.74-.3-9.5.06-9.23.45-8.94.8-8.64 1.13-8.34 1.42-8.02 1.7-7.72 1.98-7.43 2.23-7.15 2.46-6.87 2.68-6.6 2.9-6.37 3.1-6.13 3.33-5.9 3.52-5.7 3.72-5.52 3.93-5.33 4.16-5.15 4.4-4.98 4.6-4.84 4.86-4.68 5.12-4.54 5.4-4.4 5.72-4.25 6.03-4.13 6.4-3.98 6.8-3.85 7.2-3.7 7.7-3.54 8.25-3.37 3.8-1.37z" stroke="#3a414a" stroke-width=".05" fill="#3a414a"/><path d="M400 901h.86l-1.02.68-.48-.7z" fill="#3a414a"/><path stroke="#3a414a" stroke-width=".05" fill="#3a414a"/><path d="M310.55 560.86l-2.9-8.8 15-.06z" fill="#3a414a"/><path d="M310.3 561.63l-3.3-10.05 17.1-.06zm-2-9.1l2.5 7.56 10.4-7.62z" stroke="#3a414a" stroke-width=".05" fill="#3a414a"/><use xlink:href="#i" transform="matrix(1,0,0,1,253.8213749543633,883.1406516549091) translate(0 14.933333333333335)"/><path d="M496.92 190.5l-38.8 51.4-.75-.58 38.8-51.42 2.46-2.95h1.23zm89.87-74.7l-11.54 6.26-10.4 6.22-9.25 6.08-8.44 6.08-7.9 6.2-7.62 6.5-7.54 7.04-4.33 4.37h-1.33l5-5.06 7.57-7.06 7.65-6.53 7.94-6.22 8.47-6.1 9.3-6.1 10.4-6.25 11.57-6.27z" stroke="#3a414a" stroke-width=".05" fill="#3a414a"/><path d="M586.87 114.88l.35.68-.44.24-.45-.84.47-.25z" fill="#3a414a"/><path stroke="#3a414a" stroke-width=".05" fill="#3a414a"/><path d="M461.15 244.8l-12.3 8.6 4.9-14.2z" fill="#3a414a"/><path d="M461.96 244.8l-14.03 9.82 5.58-16.18zm-12.18 7.36l10.56-7.38-6.36-4.8z" stroke="#3a414a" stroke-width=".05" fill="#3a414a"/><use xlink:href="#i" transform="matrix(1,0,0,1,496.26592484135136,164.55305010327467) translate(0 14.933333333333335)"/><path d="M582.57 238.1l-.95.22-10.56 2.85-12.12 3.82-14.38 5.2-18.04 7.4-25.63 11.8-13.86 6.97-.43-.85 13.88-6.97 25.66-11.83 18.08-7.42 14.4-5.22 12.17-3.83 10.6-2.85 1.17-.27zm51.54-6.43l5.9.43 5.7.65 5.5.87 5.36 1.07 5.25 1.28 5.16 1.5 5.1 1.7 5.04 1.93 5.02 2.18 5.03 2.42 5.05 2.7 5.1 3 5.15 3.36 5.25 3.72 5.35 4.15 5.12 4.3-.62.74-5.1-4.3-5.32-4.13-5.22-3.7-5.1-3.32-5.07-3-5-2.67-5-2.4-5-2.16-5-1.93-5.05-1.7-5.12-1.47-5.2-1.28-5.33-1.06-5.46-.87-5.65-.65-5.86-.43-6.13-.18-6.43.07-6.82.38-7.27.7v-.96l7.2-.7 6.87-.36 6.47-.07z" stroke="#3a414a" stroke-width=".05" fill="#3a414a"/><path d="M718.56 267.27l-.63.72-.4-.34.63-.73z" fill="#3a414a"/><path stroke="#3a414a" stroke-width=".05" fill="#3a414a"/><path d="M488.46 280.3l-14.83 2.28 10.67-10.55z" fill="#3a414a"/><path d="M489.18 280.68l-16.92 2.6 12.17-12.05zm-14.17 1.2l12.74-1.94-3.57-7.12z" stroke="#3a414a" stroke-width=".05" fill="#3a414a"/><use xlink:href="#i" transform="matrix(1,0,0,1,582.5730930539315,223.80296373170273) translate(0 14.933333333333335)"/><defs><path d="M33 0v-248h34V0H33" id="p"/><path d="M30-248c118-7 216 8 213 122C240-48 200 0 122 0H30v-248zM63-27c89 8 146-16 146-99s-60-101-146-95v194" id="q"/><path d="M30 0v-248h33v221h125V0H30" id="r"/><path d="M30 0v-248h187v28H63v79h144v27H63v87h162V0H30" id="s"/><g id="a"><use transform="matrix(0.03703703703703704,0,0,0.03703703703703704,0,0)" xlink:href="#p"/><use transform="matrix(0.03703703703703704,0,0,0.03703703703703704,3.703703703703704,0)" xlink:href="#q"/><use transform="matrix(0.03703703703703704,0,0,0.03703703703703704,13.296296296296298,0)" xlink:href="#r"/><use transform="matrix(0.03703703703703704,0,0,0.03703703703703704,20.703703703703706,0)" xlink:href="#s"/></g><path d="M266 0h-40l-56-210L115 0H75L2-248h35L96-30l15-64 43-154h32l59 218 59-218h35" id="t"/><path d="M205 0l-28-72H64L36 0H1l101-248h38L239 0h-34zm-38-99l-47-123c-12 45-31 82-46 123h93" id="u"/><path d="M127-220V0H93v-220H8v-28h204v28h-85" id="v"/><path d="M-5 72V49h209v23H-5" id="w"/><path d="M190 0L58-211 59 0H30v-248h39L202-35l-2-213h31V0h-41" id="x"/><path d="M195 0l-74-108L45 0H8l94-129-87-119h37l69 98 67-98h37l-84 118L233 0h-38" id="y"/><path d="M212-179c-10-28-35-45-73-45-59 0-87 40-87 99 0 60 29 101 89 101 43 0 62-24 78-52l27 14C228-24 195 4 139 4 59 4 22-46 18-125c-6-104 99-153 187-111 19 9 31 26 39 46" id="z"/><path d="M197 0v-115H63V0H30v-248h33v105h134v-105h34V0h-34" id="A"/><path d="M233-177c-1 41-23 64-60 70L243 0h-38l-65-103H63V0H30v-248c88 3 205-21 203 71zM63-129c60-2 137 13 137-47 0-61-80-42-137-45v92" id="B"/><g id="b"><use transform="matrix(0.03703703703703704,0,0,0.03703703703703704,0,0)" xlink:href="#t"/><use transform="matrix(0.03703703703703704,0,0,0.03703703703703704,12.074074074074076,0)" xlink:href="#u"/><use transform="matrix(0.03703703703703704,0,0,0.03703703703703704,20.962962962962965,0)" xlink:href="#p"/><use transform="matrix(0.03703703703703704,0,0,0.03703703703703704,24.66666666666667,0)" xlink:href="#v"/><use transform="matrix(0.03703703703703704,0,0,0.03703703703703704,32.777777777777786,0)" xlink:href="#w"/><use transform="matrix(0.03703703703703704,0,0,0.03703703703703704,40.18518518518519,0)" xlink:href="#x"/><use transform="matrix(0.03703703703703704,0,0,0.03703703703703704,49.777777777777786,0)" xlink:href="#s"/><use transform="matrix(0.03703703703703704,0,0,0.03703703703703704,58.66666666666667,0)" xlink:href="#y"/><use transform="matrix(0.03703703703703704,0,0,0.03703703703703704,67.55555555555556,0)" xlink:href="#v"/><use transform="matrix(0.03703703703703704,0,0,0.03703703703703704,75.66666666666667,0)" xlink:href="#w"/><use transform="matrix(0.03703703703703704,0,0,0.03703703703703704,83.07407407407406,0)" xlink:href="#z"/><use transform="matrix(0.03703703703703704,0,0,0.03703703703703704,92.66666666666669,0)" xlink:href="#A"/><use transform="matrix(0.03703703703703704,0,0,0.03703703703703704,102.25925925925927,0)" xlink:href="#u"/><use transform="matrix(0.03703703703703704,0,0,0.03703703703703704,111.14814814814815,0)" xlink:href="#B"/></g><path d="M232-93c-1 65-40 97-104 97C67 4 28-28 28-90v-158h33c8 89-33 224 67 224 102 0 64-133 71-224h33v155" id="C"/><path d="M240 0l2-218c-23 76-54 145-80 218h-23L58-218 59 0H30v-248h44l77 211c21-75 51-140 76-211h43V0h-30" id="D"/><path d="M140-251c81 0 123 46 123 126C263-46 219 4 140 4 59 4 17-45 17-125s42-126 123-126zm0 227c63 0 89-41 89-101s-29-99-89-99c-61 0-89 39-89 99S79-25 140-24" id="E"/><path d="M194 0L95-120 63-95V0H30v-248h33v124l119-124h40L117-140 236 0h-42" id="F"/><g id="c"><use transform="matrix(0.03703703703703704,0,0,0.03703703703703704,0,0)" xlink:href="#u"/><use transform="matrix(0.03703703703703704,0,0,0.03703703703703704,8.88888888888889,0)" xlink:href="#z"/><use transform="matrix(0.03703703703703704,0,0,0.03703703703703704,18.48148148148148,0)" xlink:href="#z"/><use transform="matrix(0.03703703703703704,0,0,0.03703703703703704,28.074074074074076,0)" xlink:href="#C"/><use transform="matrix(0.03703703703703704,0,0,0.03703703703703704,37.66666666666667,0)" xlink:href="#D"/><use transform="matrix(0.03703703703703704,0,0,0.03703703703703704,48.74074074074075,0)" xlink:href="#C"/><use transform="matrix(0.03703703703703704,0,0,0.03703703703703704,58.33333333333334,0)" xlink:href="#r"/><use transform="matrix(0.03703703703703704,0,0,0.03703703703703704,65.74074074074075,0)" xlink:href="#u"/><use transform="matrix(0.03703703703703704,0,0,0.03703703703703704,73.62962962962963,0)" xlink:href="#v"/><use transform="matrix(0.03703703703703704,0,0,0.03703703703703704,81.74074074074075,0)" xlink:href="#s"/><use transform="matrix(0.03703703703703704,0,0,0.03703703703703704,90.62962962962965,0)" xlink:href="#w"/><use transform="matrix(0.03703703703703704,0,0,0.03703703703703704,98.03703703703704,0)" xlink:href="#v"/><use transform="matrix(0.03703703703703704,0,0,0.03703703703703704,105.8888888888889,0)" xlink:href="#E"/><use transform="matrix(0.03703703703703704,0,0,0.03703703703703704,116.25925925925928,0)" xlink:href="#F"/><use transform="matrix(0.03703703703703704,0,0,0.03703703703703704,125.14814814814815,0)" xlink:href="#s"/><use transform="matrix(0.03703703703703704,0,0,0.03703703703703704,134.03703703703704,0)" xlink:href="#x"/></g><path d="M137-103V0h-34v-103L8-248h37l75 118 75-118h37" id="G"/><g id="d"><use transform="matrix(0.03703703703703704,0,0,0.03703703703703704,0,0)" xlink:href="#u"/><use transform="matrix(0.03703703703703704,0,0,0.03703703703703704,8.88888888888889,0)" xlink:href="#z"/><use transform="matrix(0.03703703703703704,0,0,0.03703703703703704,18.48148148148148,0)" xlink:href="#z"/><use transform="matrix(0.03703703703703704,0,0,0.03703703703703704,28.074074074074076,0)" xlink:href="#C"/><use transform="matrix(0.03703703703703704,0,0,0.03703703703703704,37.66666666666667,0)" xlink:href="#D"/><use transform="matrix(0.03703703703703704,0,0,0.03703703703703704,48.74074074074075,0)" xlink:href="#C"/><use transform="matrix(0.03703703703703704,0,0,0.03703703703703704,58.33333333333334,0)" xlink:href="#r"/><use transform="matrix(0.03703703703703704,0,0,0.03703703703703704,65.74074074074075,0)" xlink:href="#u"/><use transform="matrix(0.03703703703703704,0,0,0.03703703703703704,73.62962962962963,0)" xlink:href="#v"/><use transform="matrix(0.03703703703703704,0,0,0.03703703703703704,81.74074074074075,0)" xlink:href="#s"/><use transform="matrix(0.03703703703703704,0,0,0.03703703703703704,90.62962962962965,0)" xlink:href="#w"/><use transform="matrix(0.03703703703703704,0,0,0.03703703703703704,98.03703703703704,0)" xlink:href="#F"/><use transform="matrix(0.03703703703703704,0,0,0.03703703703703704,106.92592592592592,0)" xlink:href="#s"/><use transform="matrix(0.03703703703703704,0,0,0.03703703703703704,115.81481481481481,0)" xlink:href="#G"/><use transform="matrix(0.03703703703703704,0,0,0.03703703703703704,124.70370370370371,0)" xlink:href="#t"/><use transform="matrix(0.03703703703703704,0,0,0.03703703703703704,137.25925925925924,0)" xlink:href="#E"/><use transform="matrix(0.03703703703703704,0,0,0.03703703703703704,147.62962962962962,0)" xlink:href="#B"/><use transform="matrix(0.03703703703703704,0,0,0.03703703703703704,157.2222222222222,0)" xlink:href="#q"/></g><g id="e"><use transform="matrix(0.03703703703703704,0,0,0.03703703703703704,0,0)" xlink:href="#s"/><use transform="matrix(0.03703703703703704,0,0,0.03703703703703704,8.88888888888889,0)" xlink:href="#x"/><use transform="matrix(0.03703703703703704,0,0,0.03703703703703704,18.48148148148148,0)" xlink:href="#q"/><use transform="matrix(0.03703703703703704,0,0,0.03703703703703704,28.074074074074076,0)" xlink:href="#w"/><use transform="matrix(0.03703703703703704,0,0,0.03703703703703704,35.48148148148148,0)" xlink:href="#v"/><use transform="matrix(0.03703703703703704,0,0,0.03703703703703704,43.333333333333336,0)" xlink:href="#E"/><use transform="matrix(0.03703703703703704,0,0,0.03703703703703704,53.70370370370371,0)" xlink:href="#F"/><use transform="matrix(0.03703703703703704,0,0,0.03703703703703704,62.592592592592595,0)" xlink:href="#s"/><use transform="matrix(0.03703703703703704,0,0,0.03703703703703704,71.48148148148148,0)" xlink:href="#x"/></g><g id="f"><use transform="matrix(0.03703703703703704,0,0,0.03703703703703704,0,0)" xlink:href="#s"/><use transform="matrix(0.03703703703703704,0,0,0.03703703703703704,8.88888888888889,0)" xlink:href="#B"/><use transform="matrix(0.03703703703703704,0,0,0.03703703703703704,18.48148148148148,0)" xlink:href="#B"/><use transform="matrix(0.03703703703703704,0,0,0.03703703703703704,28.074074074074076,0)" xlink:href="#E"/><use transform="matrix(0.03703703703703704,0,0,0.03703703703703704,38.44444444444445,0)" xlink:href="#B"/></g><path d="M185-189c-5-48-123-54-124 2 14 75 158 14 163 119 3 78-121 87-175 55-17-10-28-26-33-46l33-7c5 56 141 63 141-1 0-78-155-14-162-118-5-82 145-84 179-34 5 7 8 16 11 25" id="H"/><path d="M30-248c87 1 191-15 191 75 0 78-77 80-158 76V0H30v-248zm33 125c57 0 124 11 124-50 0-59-68-47-124-48v98" id="I"/><g id="g"><use transform="matrix(0.03703703703703704,0,0,0.03703703703703704,0,0)" xlink:href="#H"/><use transform="matrix(0.03703703703703704,0,0,0.03703703703703704,8.88888888888889,0)" xlink:href="#v"/><use transform="matrix(0.03703703703703704,0,0,0.03703703703703704,16.74074074074074,0)" xlink:href="#E"/><use transform="matrix(0.03703703703703704,0,0,0.03703703703703704,27.111111111111114,0)" xlink:href="#I"/></g><path fill="#c77dbb" d="M173 0L80-213 41 0H11l48-248h37l94 214 40-214h30L212 0h-39" id="J"/><path fill="#c77dbb" d="M111-194c62-3 86 47 72 106H45c-7 38 6 69 45 68 27-1 43-14 53-32l24 11C152-15 129 4 87 4 38 3 12-23 12-71c0-70 32-119 99-123zm44 81c14-66-71-72-95-28-4 8-8 17-11 28h106" id="K"/><path fill="#c77dbb" d="M124 0L87-78 21 0h-35l86-98-46-92h33l34 74 61-74h37l-83 92 50 98h-34" id="L"/><path fill="#c77dbb" d="M51-54c-9 22 5 41 31 30L79-1C43 14 10-4 19-52l22-115H19l5-23h22l19-43h21l-9 43h35l-4 23H73" id="M"/><path fill="#c77dbb" d="M125-24c46 0 70-25 89-51l25 16C214-24 183 4 123 4 8 4-5-146 60-208c32-50 158-61 191-5 5 7 9 14 11 22l-32 10c-9-28-33-43-69-43-74 0-108 51-108 125 0 46 24 75 72 75" id="N"/><path fill="#c77dbb" d="M67-158c15-20 31-36 64-36 94 0 33 127 27 194h-32l25-140c3-38-53-32-70-12C52-117 51-51 37 0H6l51-261h31" id="O"/><path fill="#c77dbb" d="M165-48c-4 18 1 34 23 27l-3 20c-29 8-62 0-52-35h-2C116-14 99 4 63 4 30 4 8-16 8-49c0-68 71-67 138-67 10-26 0-56-31-54-26 1-42 9-47 31l-32-5c8-67 160-71 144 15-5 28-9 54-15 81zM42-50c3 52 80 24 89-6 7-12 7-24 11-38-47 1-103-4-100 44" id="P"/><path fill="#c77dbb" d="M66-151c12-25 30-51 66-40l-6 26C45-176 58-65 38 0H6l36-190h30" id="Q"/><g id="h"><use transform="matrix(0.05185185185185186,0,0,0.05185185185185186,0,0)" xlink:href="#J"/><use transform="matrix(0.05185185185185186,0,0,0.05185185185185186,13.42962962962963,0)" xlink:href="#K"/><use transform="matrix(0.05185185185185186,0,0,0.05185185185185186,23.800000000000004,0)" xlink:href="#L"/><use transform="matrix(0.05185185185185186,0,0,0.05185185185185186,33.13333333333334,0)" xlink:href="#M"/><use transform="matrix(0.05185185185185186,0,0,0.05185185185185186,38.31851851851852,0)" xlink:href="#N"/><use transform="matrix(0.05185185185185186,0,0,0.05185185185185186,51.748148148148154,0)" xlink:href="#O"/><use transform="matrix(0.05185185185185186,0,0,0.05185185185185186,62.11851851851853,0)" xlink:href="#P"/><use transform="matrix(0.05185185185185186,0,0,0.05185185185185186,72.4888888888889,0)" xlink:href="#Q"/></g><path fill="#c77dbb" d="M14 0l48-248h34L48 0H14" id="R"/><path fill="#c77dbb" d="M67-158c22-48 132-52 116 29L158 0h-32l25-140c3-38-53-32-70-12C52-117 51-52 38 0H6l36-190h30" id="S"/><path fill="#c77dbb" d="M50-231l6-30h32l-6 30H50zM6 0l37-190h31L37 0H6" id="T"/><g id="i"><use transform="matrix(0.05185185185185186,0,0,0.05185185185185186,0,0)" xlink:href="#R"/><use transform="matrix(0.05185185185185186,0,0,0.05185185185185186,5.185185185185186,0)" xlink:href="#S"/><use transform="matrix(0.05185185185185186,0,0,0.05185185185185186,15.555555555555557,0)" xlink:href="#T"/><use transform="matrix(0.05185185185185186,0,0,0.05185185185185186,19.651851851851852,0)" xlink:href="#M"/></g><path fill="#c77dbb" d="M89 0H52L20-190h33L74-25l89-165h34" id="U"/><path fill="#c77dbb" d="M55-144c13 50 104 24 104 88C159 21 15 23 1-39l26-10c6 40 102 42 102-4-13-50-104-23-104-87 0-71 143-71 148-8l-29 4c-5-35-85-37-89 0" id="V"/><path fill="#c77dbb" d="M68-162c25-46 127-43 121 31C183-60 169 1 98 4 69 5 53-11 43-31L36 0H5l52-261h31zm88 36c2-27-9-43-34-43-55 0-70 51-70 103 0 29 15 45 43 46 52 0 58-58 61-106" id="W"/><path fill="#c77dbb" d="M6 0l50-261h32L37 0H6" id="X"/><g id="j"><use transform="matrix(0.05185185185185186,0,0,0.05185185185185186,0,0)" xlink:href="#R"/><use transform="matrix(0.05185185185185186,0,0,0.05185185185185186,5.185185185185186,0)" xlink:href="#S"/><use transform="matrix(0.05185185185185186,0,0,0.05185185185185186,15.555555555555557,0)" xlink:href="#U"/><use transform="matrix(0.05185185185185186,0,0,0.05185185185185186,24.888888888888893,0)" xlink:href="#T"/><use transform="matrix(0.05185185185185186,0,0,0.05185185185185186,28.985185185185188,0)" xlink:href="#V"/><use transform="matrix(0.05185185185185186,0,0,0.05185185185185186,38.31851851851852,0)" xlink:href="#T"/><use transform="matrix(0.05185185185185186,0,0,0.05185185185185186,42.41481481481482,0)" xlink:href="#W"/><use transform="matrix(0.05185185185185186,0,0,0.05185185185185186,52.78518518518519,0)" xlink:href="#X"/><use transform="matrix(0.05185185185185186,0,0,0.05185185185185186,56.88148148148149,0)" xlink:href="#K"/><use transform="matrix(0.05185185185185186,0,0,0.05185185185185186,67.25185185185185,0)" xlink:href="#N"/><use transform="matrix(0.05185185185185186,0,0,0.05185185185185186,80.68148148148148,0)" xlink:href="#O"/><use transform="matrix(0.05185185185185186,0,0,0.05185185185185186,91.05185185185185,0)" xlink:href="#P"/><use transform="matrix(0.05185185185185186,0,0,0.05185185185185186,101.42222222222222,0)" xlink:href="#Q"/></g><path fill="#c77dbb" d="M133-28C103 26-5 8 13-77c13-62 24-115 90-117 29-1 46 15 56 35l19-102h32L160 0h-30zM45-64c-2 27 10 43 35 43 54-1 69-50 69-103 0-29-15-46-42-46-53-1-58 58-62 106" id="Y"/><g id="k"><use transform="matrix(0.05185185185185186,0,0,0.05185185185185186,0,0)" xlink:href="#R"/><use transform="matrix(0.05185185185185186,0,0,0.05185185185185186,5.185185185185186,0)" xlink:href="#S"/><use transform="matrix(0.05185185185185186,0,0,0.05185185185185186,15.555555555555557,0)" xlink:href="#U"/><use transform="matrix(0.05185185185185186,0,0,0.05185185185185186,24.888888888888893,0)" xlink:href="#P"/><use transform="matrix(0.05185185185185186,0,0,0.05185185185185186,35.25925925925927,0)" xlink:href="#X"/><use transform="matrix(0.05185185185185186,0,0,0.05185185185185186,39.35555555555556,0)" xlink:href="#T"/><use transform="matrix(0.05185185185185186,0,0,0.05185185185185186,43.451851851851856,0)" xlink:href="#Y"/><use transform="matrix(0.05185185185185186,0,0,0.05185185185185186,53.82222222222223,0)" xlink:href="#N"/><use transform="matrix(0.05185185185185186,0,0,0.05185185185185186,67.25185185185185,0)" xlink:href="#O"/><use transform="matrix(0.05185185185185186,0,0,0.05185185185185186,77.62222222222222,0)" xlink:href="#P"/><use transform="matrix(0.05185185185185186,0,0,0.05185185185185186,87.99259259259259,0)" xlink:href="#Q"/></g><path fill="#c77dbb" d="M11 0l48-248h184l-5 28H87l-15 79h140l-5 27H67L50-27h158l-5 27H11" id="Z"/><path fill="#c77dbb" d="M30-147c31-64 166-65 159 27C183-49 158 1 86 4 9 8 1-88 30-147zM88-20c53 0 68-48 68-100 0-31-11-51-44-50-52 1-68 46-68 97 0 32 13 53 44 53" id="aa"/><g id="l"><use transform="matrix(0.05185185185185186,0,0,0.05185185185185186,0,0)" xlink:href="#Z"/><use transform="matrix(0.05185185185185186,0,0,0.05185185185185186,12.444444444444446,0)" xlink:href="#aa"/><use transform="matrix(0.05185185185185186,0,0,0.05185185185185186,22.814814814814817,0)" xlink:href="#X"/></g><path fill="#c77dbb" d="M119 0H84L31-248h34l41 218 126-218h36" id="ab"/><g id="m"><use transform="matrix(0.05185185185185186,0,0,0.05185185185185186,0,0)" xlink:href="#ab"/><use transform="matrix(0.05185185185185186,0,0,0.05185185185185186,11.770370370370372,0)" xlink:href="#P"/><use transform="matrix(0.05185185185185186,0,0,0.05185185185185186,22.140740740740746,0)" xlink:href="#X"/><use transform="matrix(0.05185185185185186,0,0,0.05185185185185186,26.23703703703704,0)" xlink:href="#T"/><use transform="matrix(0.05185185185185186,0,0,0.05185185185185186,30.333333333333336,0)" xlink:href="#Y"/><use transform="matrix(0.05185185185185186,0,0,0.05185185185185186,40.70370370370371,0)" xlink:href="#N"/><use transform="matrix(0.05185185185185186,0,0,0.05185185185185186,54.13333333333334,0)" xlink:href="#O"/><use transform="matrix(0.05185185185185186,0,0,0.05185185185185186,64.5037037037037,0)" xlink:href="#P"/><use transform="matrix(0.05185185185185186,0,0,0.05185185185185186,74.87407407407407,0)" xlink:href="#Q"/></g><path fill="#c77dbb" d="M180 0L97-118 63-96 45 0H11l48-248h34L69-126c44-43 94-81 141-122h43L121-137 219 0h-39" id="ac"/><path fill="#c77dbb" d="M198-190L69 30C53 58 25 83-20 72c4-11-1-27 19-22 33-1 43-29 59-52L20-190h32L79-34l84-156h35" id="ad"/><path fill="#c77dbb" d="M188 0h-37l-8-164L71 0H34L18-190h31l8 164 75-164h34l8 164 74-164h31" id="ae"/><g id="n"><use transform="matrix(0.05185185185185186,0,0,0.05185185185185186,0,0)" xlink:href="#ac"/><use transform="matrix(0.05185185185185186,0,0,0.05185185185185186,12.444444444444446,0)" xlink:href="#K"/><use transform="matrix(0.05185185185185186,0,0,0.05185185185185186,22.814814814814817,0)" xlink:href="#ad"/><use transform="matrix(0.05185185185185186,0,0,0.05185185185185186,32.14814814814815,0)" xlink:href="#ae"/><use transform="matrix(0.05185185185185186,0,0,0.05185185185185186,45.57777777777778,0)" xlink:href="#aa"/><use transform="matrix(0.05185185185185186,0,0,0.05185185185185186,55.94814814814816,0)" xlink:href="#Q"/><use transform="matrix(0.05185185185185186,0,0,0.05185185185185186,62.11851851851853,0)" xlink:href="#Y"/><use transform="matrix(0.05185185185185186,0,0,0.05185185185185186,72.4888888888889,0)" xlink:href="#N"/><use transform="matrix(0.05185185185185186,0,0,0.05185185185185186,85.91851851851852,0)" xlink:href="#O"/><use transform="matrix(0.05185185185185186,0,0,0.05185185185185186,96.28888888888889,0)" xlink:href="#P"/><use transform="matrix(0.05185185185185186,0,0,0.05185185185185186,106.65925925925924,0)" xlink:href="#Q"/></g><path fill="#c77dbb" d="M248-139C247-14 144 9 11 0l48-248c105-6 190 8 189 109zm-34 0c1-70-52-87-126-82L50-27c98 7 163-21 164-112" id="af"/><path fill="#c77dbb" d="M44-68c0 29 11 47 38 47 30 0 42-19 51-41l28 9C148-21 126 4 82 4 31 4 10-29 12-85c3-77 74-140 146-93 12 8 15 23 18 40l-31 5c-1-22-13-36-36-36-52 0-65 49-65 101" id="ag"/><path fill="#c77dbb" d="M151-220L108 0H75l42-220H32l6-28h203l-5 28h-85" id="ah"/><path fill="#c77dbb" d="M127 0L80-88 50-66 37 0H6l51-261h31L57-100l99-90h39l-93 82L161 0h-34" id="ai"/><g id="o"><use transform="matrix(0.05185185185185186,0,0,0.05185185185185186,0,0)" xlink:href="#af"/><use transform="matrix(0.05185185185185186,0,0,0.05185185185185186,13.42962962962963,0)" xlink:href="#K"/><use transform="matrix(0.05185185185185186,0,0,0.05185185185185186,23.800000000000004,0)" xlink:href="#M"/><use transform="matrix(0.05185185185185186,0,0,0.05185185185185186,28.985185185185188,0)" xlink:href="#K"/><use transform="matrix(0.05185185185185186,0,0,0.05185185185185186,39.35555555555556,0)" xlink:href="#ag"/><use transform="matrix(0.05185185185185186,0,0,0.05185185185185186,48.6888888888889,0)" xlink:href="#M"/><use transform="matrix(0.05185185185185186,0,0,0.05185185185185186,53.87407407407408,0)" xlink:href="#ah"/><use transform="matrix(0.05185185185185186,0,0,0.05185185185185186,63.518518518518526,0)" xlink:href="#aa"/><use transform="matrix(0.05185185185185186,0,0,0.05185185185185186,73.8888888888889,0)" xlink:href="#ai"/><use transform="matrix(0.05185185185185186,0,0,0.05185185185185186,83.22222222222223,0)" xlink:href="#K"/><use transform="matrix(0.05185185185185186,0,0,0.05185185185185186,93.5925925925926,0)" xlink:href="#S"/></g></defs></g></svg>